<svg width="120" height="119" viewBox="0 0 120 119" fill="none" xmlns="http://www.w3.org/2000/svg">
<path d="M0 31.6214C0 14.1572 14.2707 0 31.875 0H87.6563C105.261 0 119.531 14.1572 119.531 31.6214V86.9588C119.531 104.423 105.261 118.58 87.6563 118.58H31.875C14.2707 118.58 0 104.423 0 86.9588V31.6214Z" fill="#141414"/>
<path d="M0 34.2568H75.7032C61.7678 34.2568 50.4688 46.0556 50.4688 60.608C50.4688 75.1604 61.7678 86.9591 75.7032 86.9591H0V34.2568Z" fill="url(#paint0_radial_474_17)"/>
<path d="M100.938 60.608C100.938 46.0556 89.6385 34.2568 75.7031 34.2568C61.7678 34.2568 50.4688 46.0556 50.4688 60.608C50.4688 75.1604 61.7678 86.9591 75.7031 86.9591C89.6385 86.9591 100.938 75.1604 100.938 60.608Z" fill="white"/>
<defs>
<radialGradient id="paint0_radial_474_17" cx="0" cy="0" r="1" gradientUnits="userSpaceOnUse" gradientTransform="translate(75.7032 60.608) scale(75.7032 52.7023)">
<stop stop-color="white"/>
<stop offset="1" stop-color="white" stop-opacity="0"/>
</radialGradient>
</defs>
</svg>
