<svg width="425" height="119" viewBox="0 0 425 119" fill="none" xmlns="http://www.w3.org/2000/svg">
<path d="M216.252 35.3828C211.819 35.3828 208.227 39.0752 208.227 43.6307V76.5663C208.227 81.1218 211.819 84.8142 216.252 84.8142C216.571 84.8142 216.889 84.7944 217.198 84.7549V84.8175H237.907C246.155 84.8175 252.842 77.9464 252.842 69.4647C252.842 64.6786 249.98 60.3999 246.639 57.5836C247.709 55.4327 248.296 52.982 248.253 50.393C248.117 42.0759 241.516 35.4058 233.425 35.4058H216.889V35.4091C216.68 35.3926 216.464 35.3828 216.252 35.3828ZM234.673 72.808H224.274V65.008H234.673C236.469 65.008 237.907 67.0272 237.907 68.8751C237.907 70.7196 236.469 72.808 234.673 72.808ZM230.921 54.5565H224.274V46.6676H230.921C232.638 46.6676 234.215 48.8976 234.245 50.6631C234.275 52.4715 232.681 54.5565 230.921 54.5565ZM409.664 43.298C409.664 38.9435 413.097 35.4157 417.334 35.4157C421.567 35.4157 425 38.9435 425 43.298C425 47.6492 421.567 51.1803 417.334 51.1803C413.097 51.1803 409.664 47.6492 409.664 43.298ZM154.062 44.0226C154.062 39.3354 157.761 35.5343 162.323 35.5343C166.882 35.5343 170.581 39.3354 170.581 44.0226V54.764C170.628 54.7014 170.674 54.6421 170.721 54.5796L183.178 38.7326C185.874 35.3037 190.762 34.7701 194.096 37.5403C197.432 40.3104 197.95 45.3336 195.258 48.7625L186.612 59.7576L196.254 71.9779C199.023 75.4892 198.502 80.6408 195.088 83.4868C191.672 86.3327 186.661 85.7958 183.892 82.2878L170.797 65.6932C170.724 65.5976 170.651 65.5021 170.581 65.4066V76.9616C170.581 81.6488 166.882 85.4499 162.323 85.4499C157.761 85.4499 154.062 81.6488 154.062 76.9616V44.0226ZM386.68 50.6499H377.287C373.226 50.6499 369.933 47.2671 369.933 43.0905C369.933 38.9171 373.226 35.5343 377.287 35.5343H395.443H395.788H397.199C401.26 35.5343 404.554 38.9171 404.554 43.0905C404.554 43.3243 404.544 43.5549 404.52 43.7855C404.544 44.0358 404.554 44.2861 404.554 44.5431V75.9536C404.554 80.9274 400.629 84.9624 395.788 84.9624H395.443C390.602 84.9624 386.68 80.9274 386.68 75.9536V50.6499ZM316.984 43.9996C316.984 39.3222 320.673 35.5277 325.225 35.5277C329.774 35.5277 333.462 39.3222 333.462 43.9996V52.735H346.93V43.9996C346.93 39.3222 350.618 35.5277 355.171 35.5277C359.723 35.5277 363.412 39.3222 363.412 43.9996V76.4872C363.412 81.1646 359.723 84.9591 355.171 84.9591C350.618 84.9591 346.93 81.1646 346.93 76.4872V67.709H333.462V76.4872C333.462 81.1646 329.774 84.9591 325.225 84.9591C320.673 84.9591 316.984 81.1646 316.984 76.4872V43.9996ZM276.844 35.5013C274.015 35.8571 271.492 37.8301 270.516 40.7946L259.473 74.3627C258.121 78.48 260.266 82.9433 264.27 84.3333C268.275 85.7266 272.618 83.5164 273.972 79.4023L274.577 77.5643H293.562L294.256 79.6856C295.598 83.7898 299.917 85.9967 303.912 84.6199C307.903 83.243 310.051 78.7996 308.713 74.6954L297.719 41.0482C297.231 39.5495 296.341 38.3011 295.219 37.392C293.868 36.1601 292.091 35.4157 290.146 35.4157H277.993C277.601 35.4157 277.22 35.4453 276.844 35.5013ZM284.933 51.1473L289.093 63.8749H279.079L283.266 51.1473H284.933Z" fill="white"/>
<path d="M0 31.6214C0 14.1572 14.2707 0 31.875 0H87.6563C105.261 0 119.531 14.1572 119.531 31.6214V86.9588C119.531 104.423 105.261 118.58 87.6563 118.58H31.875C14.2707 118.58 0 104.423 0 86.9588V31.6214Z" fill="white"/>
<path d="M0 31.6214C0 14.1572 14.2707 0 31.875 0H87.6563C105.261 0 119.531 14.1572 119.531 31.6214V86.9588C119.531 104.423 105.261 118.58 87.6563 118.58H31.875C14.2707 118.58 0 104.423 0 86.9588V31.6214Z" fill="url(#paint0_linear_472_9)" fill-opacity="0.2"/>
<path d="M0 34.2568H75.7032C61.7678 34.2568 50.4688 46.0556 50.4688 60.608C50.4688 75.1604 61.7678 86.9591 75.7032 86.9591H0V34.2568Z" fill="url(#paint1_radial_472_9)"/>
<path d="M100.938 60.608C100.938 46.0556 89.6385 34.2568 75.7031 34.2568C61.7678 34.2568 50.4688 46.0556 50.4688 60.608C50.4688 75.1604 61.7678 86.9591 75.7031 86.9591C89.6385 86.9591 100.938 75.1604 100.938 60.608Z" fill="#141414"/>
<defs>
<linearGradient id="paint0_linear_472_9" x1="16.1254" y1="107.503" x2="51.0637" y2="78.8352" gradientUnits="userSpaceOnUse">
<stop/>
<stop offset="1" stop-opacity="0"/>
</linearGradient>
<radialGradient id="paint1_radial_472_9" cx="0" cy="0" r="1" gradientUnits="userSpaceOnUse" gradientTransform="translate(75.7032 60.608) scale(75.7032 52.7023)">
<stop/>
<stop offset="1" stop-color="#BABABA" stop-opacity="0"/>
</radialGradient>
</defs>
</svg>
