<svg width="425" height="119" viewBox="0 0 425 119" fill="none" xmlns="http://www.w3.org/2000/svg">
<path d="M216.252 35.3828C211.819 35.3828 208.227 39.0753 208.227 43.6307V76.5664C208.227 81.1218 211.819 84.8143 216.252 84.8143C216.571 84.8143 216.889 84.7945 217.198 84.755V84.8176H237.907C246.155 84.8176 252.842 77.9465 252.842 69.4647C252.842 64.6787 249.98 60.3999 246.639 57.5837C247.709 55.4327 248.296 52.9821 248.253 50.3931C248.117 42.076 241.516 35.4059 233.425 35.4059H216.889V35.4092C216.68 35.3927 216.464 35.3828 216.252 35.3828ZM234.673 72.808H224.274V65.0081H234.673C236.469 65.0081 237.907 67.0272 237.907 68.8751C237.907 70.7197 236.469 72.808 234.673 72.808ZM230.921 54.5566H224.274V46.6677H230.921C232.638 46.6677 234.215 48.8977 234.245 50.6632C234.275 52.4715 232.681 54.5566 230.921 54.5566ZM409.664 43.298C409.664 38.9435 413.097 35.4158 417.334 35.4158C421.567 35.4158 425 38.9435 425 43.298C425 47.6493 421.567 51.1803 417.334 51.1803C413.097 51.1803 409.664 47.6493 409.664 43.298ZM154.062 44.0227C154.062 39.3355 157.761 35.5343 162.323 35.5343C166.882 35.5343 170.581 39.3355 170.581 44.0227V54.7641C170.628 54.7015 170.674 54.6422 170.721 54.5796L183.178 38.7327C185.874 35.3038 190.762 34.7702 194.096 37.5403C197.432 40.3105 197.95 45.3337 195.258 48.7626L186.612 59.7576L196.254 71.978C199.023 75.4893 198.502 80.6409 195.088 83.4868C191.672 86.3328 186.661 85.7958 183.892 82.2878L170.797 65.6932C170.724 65.5977 170.651 65.5022 170.581 65.4066V76.9616C170.581 81.6488 166.882 85.45 162.323 85.45C157.761 85.45 154.062 81.6488 154.062 76.9616V44.0227ZM386.68 50.65H377.287C373.226 50.65 369.933 47.2672 369.933 43.0905C369.933 38.9172 373.226 35.5343 377.287 35.5343H395.443H395.788H397.199C401.26 35.5343 404.554 38.9172 404.554 43.0905C404.554 43.3244 404.544 43.555 404.52 43.7855C404.544 44.0359 404.554 44.2862 404.554 44.5431V75.9537C404.554 80.9275 400.629 84.9625 395.788 84.9625H395.443C390.602 84.9625 386.68 80.9275 386.68 75.9537V50.65ZM316.984 43.9996C316.984 39.3223 320.673 35.5277 325.225 35.5277C329.774 35.5277 333.462 39.3223 333.462 43.9996V52.735H346.93V43.9996C346.93 39.3223 350.618 35.5277 355.171 35.5277C359.723 35.5277 363.412 39.3223 363.412 43.9996V76.4873C363.412 81.1646 359.723 84.9592 355.171 84.9592C350.618 84.9592 346.93 81.1646 346.93 76.4873V67.7091H333.462V76.4873C333.462 81.1646 329.774 84.9592 325.225 84.9592C320.673 84.9592 316.984 81.1646 316.984 76.4873V43.9996ZM276.844 35.5014C274.015 35.8571 271.492 37.8302 270.516 40.7947L259.473 74.3627C258.121 78.4801 260.266 82.9433 264.27 84.3334C268.275 85.7267 272.618 83.5165 273.972 79.4024L274.577 77.5644H293.562L294.256 79.6857C295.598 83.7899 299.917 85.9968 303.912 84.6199C307.903 83.2431 310.051 78.7996 308.713 74.6954L297.719 41.0483C297.231 39.5496 296.341 38.3012 295.219 37.3921C293.868 36.1602 292.091 35.4158 290.146 35.4158H277.993C277.601 35.4158 277.22 35.4454 276.844 35.5014ZM284.933 51.1474L289.093 63.875H279.079L283.266 51.1474H284.933Z" fill="#141414"/>
<path d="M0 31.6214C0 14.1572 14.2707 0 31.875 0H87.6563C105.261 0 119.531 14.1572 119.531 31.6214V86.9588C119.531 104.423 105.261 118.58 87.6563 118.58H31.875C14.2707 118.58 0 104.423 0 86.9588V31.6214Z" fill="#141414"/>
<path d="M0 34.2568H75.7032C61.7678 34.2568 50.4688 46.0556 50.4688 60.608C50.4688 75.1604 61.7678 86.9591 75.7032 86.9591H0V34.2568Z" fill="url(#paint0_radial_472_2)"/>
<path d="M100.938 60.608C100.938 46.0556 89.6385 34.2568 75.7031 34.2568C61.7678 34.2568 50.4688 46.0556 50.4688 60.608C50.4688 75.1604 61.7678 86.9591 75.7031 86.9591C89.6385 86.9591 100.938 75.1604 100.938 60.608Z" fill="white"/>
<defs>
<radialGradient id="paint0_radial_472_2" cx="0" cy="0" r="1" gradientUnits="userSpaceOnUse" gradientTransform="translate(75.7032 60.608) scale(75.7032 52.7023)">
<stop stop-color="white"/>
<stop offset="1" stop-color="white" stop-opacity="0"/>
</radialGradient>
</defs>
</svg>
